<svg width="77" height="48" viewBox="0 0 77 48" fill="none" xmlns="http://www.w3.org/2000/svg">
<path d="M18.784 0.687998C19.408 0.687998 19.936 0.843998 20.368 1.156C20.8 1.444 21.016 1.804 21.016 2.236C21.016 3.004 20.776 3.628 20.296 4.108C19.816 4.564 19.132 4.792 18.244 4.792C16.852 4.792 15.796 4.804 15.076 4.828C15.028 5.116 14.812 6.412 14.428 8.716C13.996 11.284 13.732 12.856 13.636 13.432L12.88 18.148C12.352 21.676 11.932 24.628 11.62 27.004C12.124 26.98 12.808 26.968 13.672 26.968C14.944 26.968 15.808 27.136 16.264 27.472C16.72 27.808 16.948 28.312 16.948 28.984C16.948 29.608 16.696 30.136 16.192 30.568C15.712 31 15.028 31.216 14.14 31.216C13.54 31.216 12.592 31.192 11.296 31.144C10.096 31.096 9.304 31.072 8.92 31.072C7.408 31.072 5.752 31.204 3.952 31.468C3.16 31.588 2.596 31.648 2.26 31.648C1.732 31.648 1.288 31.504 0.928 31.216C0.568 30.928 0.388 30.508 0.388 29.956C0.388 29.092 0.772 28.42 1.54 27.94C2.308 27.46 3.388 27.208 4.78 27.184L6.472 27.148L6.58 26.356C7.156 22.516 7.576 19.804 7.84 18.22L8.632 13.504C9.112 10.72 9.544 7.852 9.928 4.9L6.904 4.936C6.04 4.936 5.44 4.804 5.104 4.54C4.792 4.252 4.636 3.856 4.636 3.352C4.636 1.72 5.812 0.843999 8.164 0.723999C9.268 0.675998 10.612 0.651998 12.196 0.651998L18.784 0.687998ZM38.9842 23.044C39.2962 23.044 39.5362 23.2 39.7042 23.512C39.8962 23.8 39.9922 24.172 39.9922 24.628C39.9922 25.18 39.9082 25.612 39.7402 25.924C39.5722 26.236 39.3082 26.512 38.9482 26.752C36.8842 28.144 35.3722 29.176 34.4122 29.848L32.1082 31.396C31.1962 36.364 29.9962 40.264 28.5082 43.096C27.0442 45.952 25.1722 47.38 22.8922 47.38C21.6682 47.38 20.6722 46.996 19.9042 46.228C19.1362 45.484 18.7522 44.5 18.7522 43.276C18.7522 41.572 19.4242 39.736 20.7682 37.768C22.1122 35.824 24.6322 33.424 28.3282 30.568L28.5442 29.164C28.1362 29.812 27.5962 30.316 26.9242 30.676C26.2762 31.012 25.6282 31.18 24.9802 31.18C23.4922 31.18 22.3042 30.64 21.4162 29.56C20.5282 28.48 20.0842 27.064 20.0842 25.312C20.0842 23.392 20.5282 21.58 21.4162 19.876C22.3042 18.148 23.4802 16.768 24.9442 15.736C26.4322 14.68 28.0042 14.152 29.6602 14.152C30.1882 14.152 30.5362 14.26 30.7042 14.476C30.8962 14.668 31.0522 15.028 31.1722 15.556C31.6282 15.46 32.1562 15.412 32.7562 15.412C33.3562 15.412 33.7762 15.508 34.0162 15.7C34.2802 15.868 34.4122 16.216 34.4122 16.744C34.4122 17.032 34.4002 17.26 34.3762 17.428C34.2802 18.172 33.9802 20.056 33.4762 23.08C33.3802 23.656 33.2722 24.292 33.1522 24.988C33.0562 25.66 32.9482 26.38 32.8282 27.148C34.6762 25.708 36.4522 24.436 38.1562 23.332C38.4682 23.14 38.7442 23.044 38.9842 23.044ZM26.2762 27.544C26.8282 27.544 27.3562 27.208 27.8602 26.536C28.3642 25.864 28.7242 24.904 28.9402 23.656L30.0922 17.5C29.1082 17.524 28.1962 17.908 27.3562 18.652C26.5162 19.372 25.8442 20.332 25.3402 21.532C24.8362 22.732 24.5842 24.004 24.5842 25.348C24.5842 26.092 24.7282 26.644 25.0162 27.004C25.3282 27.364 25.7482 27.544 26.2762 27.544ZM23.2882 43.888C23.8882 43.888 24.5602 43.168 25.3042 41.728C26.0722 40.288 26.8042 37.996 27.5002 34.852C25.6522 36.436 24.3202 37.864 23.5042 39.136C22.6882 40.408 22.2802 41.524 22.2802 42.484C22.2802 42.892 22.3522 43.228 22.4962 43.492C22.6642 43.756 22.9282 43.888 23.2882 43.888ZM39.9481 31.18C39.0361 31.18 38.3881 30.7 38.0041 29.74C37.6441 28.78 37.4641 27.244 37.4641 25.132C37.4641 22.012 37.9081 19.048 38.7961 16.24C39.0121 15.544 39.3601 15.04 39.8401 14.728C40.3441 14.392 41.0401 14.224 41.9281 14.224C42.4081 14.224 42.7441 14.284 42.9361 14.404C43.1281 14.524 43.2241 14.752 43.2241 15.088C43.2241 15.472 43.0441 16.336 42.6841 17.68C42.4441 18.64 42.2521 19.48 42.1081 20.2C41.9641 20.92 41.8441 21.808 41.7481 22.864C42.5401 20.8 43.4281 19.12 44.4121 17.824C45.3961 16.528 46.3561 15.604 47.2921 15.052C48.2521 14.5 49.1281 14.224 49.9201 14.224C51.4801 14.224 52.2601 15.004 52.2601 16.564C52.2601 17.5 51.9961 19.192 51.4681 21.64C51.0121 23.728 50.7841 25.108 50.7841 25.78C50.7841 26.74 51.1321 27.22 51.8281 27.22C52.3081 27.22 52.8721 26.932 53.5201 26.356C54.1921 25.756 55.0801 24.796 56.1841 23.476C56.4721 23.14 56.7961 22.972 57.1561 22.972C57.4681 22.972 57.7081 23.116 57.8761 23.404C58.0681 23.692 58.1641 24.088 58.1641 24.592C58.1641 25.552 57.9361 26.296 57.4801 26.824C56.4481 28.096 55.3321 29.14 54.1321 29.956C52.9561 30.772 51.6121 31.18 50.1001 31.18C48.8761 31.18 47.9521 30.832 47.3281 30.136C46.7041 29.416 46.3921 28.384 46.3921 27.04C46.3921 26.368 46.5601 25.168 46.8961 23.44C47.2081 21.928 47.3641 20.884 47.3641 20.308C47.3641 19.924 47.2321 19.732 46.9681 19.732C46.6561 19.732 46.2121 20.14 45.6361 20.956C45.0841 21.748 44.5081 22.804 43.9081 24.124C43.3321 25.444 42.8641 26.836 42.5041 28.3C42.2401 29.428 41.9281 30.196 41.5681 30.604C41.2321 30.988 40.6921 31.18 39.9481 31.18ZM59.9674 11.848C58.9594 11.848 58.2034 11.62 57.6994 11.164C57.1954 10.684 56.9434 10.024 56.9434 9.184C56.9434 8.344 57.2674 7.648 57.9154 7.096C58.5874 6.52 59.4154 6.232 60.3994 6.232C61.2874 6.232 62.0074 6.448 62.5594 6.88C63.1114 7.312 63.3874 7.924 63.3874 8.716C63.3874 9.676 63.0754 10.444 62.4514 11.02C61.8274 11.572 60.9994 11.848 59.9674 11.848ZM59.6794 31.18C58.1194 31.18 56.9794 30.628 56.2594 29.524C55.5634 28.42 55.2154 26.956 55.2154 25.132C55.2154 24.052 55.3474 22.672 55.6114 20.992C55.8994 19.288 56.2594 17.704 56.6914 16.24C56.9074 15.472 57.1954 14.944 57.5554 14.656C57.9154 14.368 58.4914 14.224 59.2834 14.224C60.5074 14.224 61.1194 14.632 61.1194 15.448C61.1194 16.048 60.8914 17.44 60.4354 19.624C59.8594 22.264 59.5714 24.052 59.5714 24.988C59.5714 25.708 59.6674 26.26 59.8594 26.644C60.0514 27.028 60.3754 27.22 60.8314 27.22C61.2634 27.22 61.8034 26.92 62.4514 26.32C63.0994 25.72 63.9634 24.772 65.0434 23.476C65.3314 23.14 65.6554 22.972 66.0154 22.972C66.3274 22.972 66.5674 23.116 66.7354 23.404C66.9274 23.692 67.0234 24.088 67.0234 24.592C67.0234 25.552 66.7954 26.296 66.3394 26.824C63.9634 29.728 61.7434 31.18 59.6794 31.18ZM70.8068 31.972C69.5588 31.972 68.5988 31.684 67.9268 31.108C67.2788 30.532 66.9548 29.884 66.9548 29.164C66.9548 28.54 67.1828 28 67.6388 27.544C68.0948 27.088 68.7668 26.86 69.6548 26.86C69.9668 26.86 70.3268 26.896 70.7348 26.968C71.1668 27.016 71.4908 27.052 71.7068 27.076C71.6828 26.452 71.5388 25.864 71.2748 25.312C71.0348 24.76 70.7228 24.232 70.3388 23.728C69.9548 23.2 69.5948 22.744 69.2588 22.36C68.5148 23.776 67.7708 24.952 67.0268 25.888C66.3068 26.824 65.5148 27.712 64.6508 28.552C64.2188 28.984 63.7628 29.2 63.2828 29.2C62.8988 29.2 62.5868 29.068 62.3468 28.804C62.1068 28.516 61.9868 28.168 61.9868 27.76C61.9868 27.28 62.1548 26.836 62.4908 26.428L62.9588 25.852C64.2788 24.22 65.2748 22.876 65.9468 21.82C66.3788 21.124 66.8108 20.296 67.2428 19.336C67.6988 18.376 68.2868 17.068 69.0068 15.412C69.4628 14.356 70.4108 13.828 71.8508 13.828C72.5228 13.828 72.9908 13.888 73.2548 14.008C73.5188 14.128 73.6508 14.32 73.6508 14.584C73.6508 14.728 73.6028 14.956 73.5068 15.268C73.4108 15.58 73.2788 15.892 73.1108 16.204C72.6788 17.068 72.4628 17.8 72.4628 18.4C72.4628 18.76 72.5828 19.156 72.8228 19.588C73.0868 20.02 73.4828 20.56 74.0108 21.208C74.7788 22.216 75.3548 23.08 75.7388 23.8C76.1468 24.496 76.3508 25.264 76.3508 26.104C76.3508 27.112 76.1108 28.072 75.6308 28.984C75.1748 29.872 74.5268 30.592 73.6868 31.144C72.8468 31.696 71.8868 31.972 70.8068 31.972Z" fill="#4A4A4A"/>
</svg>
